{"title":"Planet.Dinosaur.Files.S01E03.Kings.of.the.Waterworld-Oj","uid":6741902,"size":367831992,"categoryP":"video","categoryS":"tv_shows","magnet":"?xt=urn:btih:c46227c5e8c6b123b82aae7807bc074ee90a5ec3&amp;dn=Planet.Dinosaur.Files.S01E03.Kings.of.the.Waterworld-Oj&amp;tr=udp%3A%2F%2Ftracker.openbittorrent.com%3A80&amp;tr=udp%3A%2F%2Fopen.demonii.com%3A1337&amp;tr=udp%3A%2F%2Ftracker.coppersurfer.tk%3A6969&amp;tr=udp%3A%2F%2Fexodus.desync.com%3A6969","seeders":1,"leechers":1,"uploader":"despo1ler","files":-1,"time":1318538238,"description":"[center]\n[URL=http://img7.imageshack.us/i/planetdinosaur.jpg/][IMG]http://img7.imageshack.us/img7/7870/planetdinosaur.jpg[/IMG][/URL]\n-=-=-=-=-=-=-=-=-=-=-=-\n\n[b]Planet Dinosaur Files[/b]\n\n3 Kings of the Waterworld \n\nPresenter Jem Stansfield enters the amazing world of Planet Dinosaur,\nUnderwater he meets the Terrifying predator of the deep, Predator X\n\nCategory General Children's/Youth\n\nCast\nPresenter Jem Stansfield \n \n-=-=-=-=-=-=-=-=-=-\n\n[b]File info[/b]\n\nFormat                           : AVI\nFormat/Info                      : Audio Video Interleave\nFile size                        : 351 MiB\nDuration                         : 28mn 14s\nOverall bit rate                 : 1 737 Kbps\nWriting library                  : VirtualDub build 32842/release\n\nVideo\nID                               : 0\nFormat                           : MPEG-4 Visual\nFormat profile                   : Simple@L1\nFormat settings, BVOP            : No\nFormat settings, QPel            : No\nFormat settings, GMC             : No warppoints\nFormat settings, Matrix          : Default (H.263)\nCodec ID                         : XVID\nCodec ID/Hint                    : XviD\nDuration                         : 28mn 14s\nBit rate                         : 1 599 Kbps\nWidth                            : 720 pixels\nHeight                           : 420 pixels\nDisplay aspect ratio             : 16:9\nFrame rate                       : 25.000 fps\nColor space                      : YUV\nChroma subsampling               : 4:2:0\nBit depth                        : 8 bits\nScan type                        : Progressive\nCompression mode                 : Lossy\nBits/(Pixel*Frame)               : 0.212\nStream size                      : 323 MiB (92%)\nWriting library                  : Lavc52.41.0\n\nAudio\nID                               : 1\nFormat                           : MPEG Audio\nFormat version                   : Version 1\nFormat profile                   : Layer 3\nMode                             : Joint stereo\nMode extension                   : MS Stereo\nCodec ID                         : 55\nCodec ID/Hint                    : MP3\nDuration                         : 28mn 13s\nBit rate mode                    : Constant\nBit rate                         : 128 Kbps\nChannel(s)                       : 2 channels\nSampling rate                    : 48.0 KHz\nCompression mode                 : Lossy\nStream size                      : 25.8 MiB (7%)\nAlignment                        : Split accross interleaves\nInterleave, duration             : 40 ms (1.00 video frame)\nInterleave, preload duration     : 500 ms\n\n\nspoken language: Engish\n\n--------------------------------\n\n[b]Screenshots[/b]\n\n[URL=http://img97.imageshack.us/i/planetdinosaurfiless01e.jpg/][IMG]http://img97.imageshack.us/img97/6783/planetdinosaurfiless01e.jpg[/IMG][/URL]\n\n[b]Hash:[/b]\nC46227C5E8C6B123B82AAE7807BC074EE90A5EC3\n\n[/center]\n\n","torrent":{"xt":"urn:btih:c46227c5e8c6b123b82aae7807bc074ee90a5ec3","amp;dn":"Planet.Dinosaur.Files.S01E03.Kings.of.the.Waterworld-Oj","amp;tr":["udp%3A%2F%2Ftracker.openbittorrent.com%3A80","udp%3A%2F%2Fopen.demonii.com%3A1337","udp%3A%2F%2Ftracker.coppersurfer.tk%3A6969","udp%3A%2F%2Fexodus.desync.com%3A6969"],"infoHash":"c46227c5e8c6b123b82aae7807bc074ee90a5ec3","infoHashBuffer":{"type":"Buffer","data":[196,98,39,197,232,198,177,35,184,42,174,120,7,188,7,78,233,10,94,195]},"announce":[],"urlList":[]}}